# xmcd
#
# Track frame offsets:
#	150
#	12529
#	24180
#	32767
#	45394
#	57067
#	70052
#	88518
#	101137
#	109772
#	123588
#	139814
#	151907
#	164772
#	174918
#	187496
#	199268
#	215168
#	227230
#	243154
#
# Disc length: 3428 seconds
#
# Revision: 1
# Processed by: cddbd v1.5.1PL2 Copyright (c) Steve Scherf et al.
# Submitted via: audiograbber 1.82.02
#
DISCID=1b0d6214
DTITLE=Various Artist - Country-Hits CD4
DYEAR=1900
DGENRE=Country
TTITLE0=Lynn Anderson - Stand by your man
TTITLE1=Jimmie Rodgers - A good woman likes to drink with the boys
TTITLE2=Ricky Skaggs - A few more seasons
TTITLE3=Glen Campbell - By the time I get to Phoenix
TTITLE4=Delbert McClinton - These boots are made for walking
TTITLE5=Anne Murray - Path of victory
TTITLE6=The Mavericks - Fool number one
TTITLE7=Johnny cash - Folsom prison blues
TTITLE8=Waylon Jennings - Love's gonna live here
TTITLE9=George Jones - A good year for the roses
TTITLE10=Juice Newton and Randy Meisner - Heart of gold
TTITLE11=Billie Jo Spears - Look what they've done to my song, ma
TTITLE12=Porter Waggoner - Satisfied mind
TTITLE13=Patsy Cline - Three cigarettes in an ashtray
TTITLE14=Jerry Wallace - In the mistry moonlight
TTITLE15=Troy Shondell - This time
TTITLE16=Lucky - It only takes a little woman
TTITLE17=Jimmy C. Newman - Dead skunk (in the middle of the road)
TTITLE18=Bill Anderson - Mama sang a song
TTITLE19=Sonny Hill - Crying in the chapel
EXTD=
EXTT0=
EXTT1=
EXTT2=
EXTT3=
EXTT4=
EXTT5=
EXTT6=
EXTT7=
EXTT8=
EXTT9=
EXTT10=
EXTT11=
EXTT12=
EXTT13=
EXTT14=
EXTT15=
EXTT16=
EXTT17=
EXTT18=
EXTT19=
PLAYORDER=
